# xmcd CD database file
# Copyright (C) 1995-1998 Ti Kan
#
# Track frame offsets:
#	182
#	16640
#	33082
#	50287
#	68525
#	83602
#	101042
#	119412
#	137300
#	153097
#	173705
#
# Disc length: 2498 seconds
#
# Revision: 1
# Processed by: cddbd v1.4b41PL1 Copyright (c) Steve Scherf et al.
# Submitted via: CDex 1.30
#
DISCID=7009c00b
DTITLE=Tim Rushlow - Tim Rushlow
DYEAR=2001
DGENRE=Country
TTITLE0=Then There's Me
TTITLE1=In The Meantime
TTITLE2=She Misses Him
TTITLE3=Crazy Life
TTITLE4=American Cars
TTITLE5=When You Love Me
TTITLE6=Everything To You
TTITLE7=I Live
TTITLE8=The World Turns
TTITLE9=The Package
TTITLE10=That's How It's Gonna Be
EXTD=YEAR: 2001  ID3G:   2
EXTT0=
EXTT1=
EXTT2=
EXTT3=
EXTT4=
EXTT5=
EXTT6=
EXTT7=
EXTT8=
EXTT9=
EXTT10=
PLAYORDER=
